<?xml version="1.0" encoding="utf-8"?>
<!-- Generator: Adobe Illustrator 13.0.0, SVG Export Plug-In . SVG Version: 6.00 Build 14948)  -->
<!DOCTYPE svg PUBLIC "-//W3C//DTD SVG 1.1//EN" "http://www.w3.org/Graphics/SVG/1.1/DTD/svg11.dtd">
<svg version="1.1" id="Layer_1" xmlns="http://www.w3.org/2000/svg" xmlns:xlink="http://www.w3.org/1999/xlink" x="0px" y="0px"
	 width="655px" height="720px" viewBox="0 0 654.609 720" enable-background="new 0 0 654.609 720" xml:space="preserve">
<g>
	<g>
		<path d="M635.109,718.422c-2.141-3.312-2.141-8.359-2.141-12.75v-4.109c0-12.859,3.703-17.656,10.531-28.062l11.109-17.25h-12.297
			c1.078,1.172,1.469,2.422,1.469,3.891c0,2.922-2.141,7.688-4.375,11.609l-6.625,11.781c-0.984,1.766-1.656,3.438-2.25,3.438
			c-0.781,0-1.188-1.484-1.578-2.938c-1.828-6.922-6.328-18.031-10.109-24.078c-1.766-2.844-2.453-3.703-5.969-3.703h-8.359
			c4,3.594,8.969,11.203,12.844,19.188c3.922,8.016,6.828,14.531,6.828,21.344v8.891c0,4.391,0,9.438-2.141,12.75H635.109z"/>
		<path d="M441.375,685.984c7-2.828,14.406-8.688,14.406-17.656c0-7.609-5.172-13.062-15.094-13.062
			c-7.594,0-15.391,0.984-23.594,0.984c2.141,3.297,2.141,8.391,2.141,12.781v36.031c0,4.203,0.188,8.875-2.625,13.359h13.547
			c-2.141-3.312-2.141-8.359-2.141-12.75v-17.562c5.641,0.5,6.344,2.156,10.422,7.984l11.891,16.984
			c2.156,3.109,4,5.344,8.188,5.344h7.984c-4-3.703-5.344-5.266-8.172-9.047L441.375,685.984z M428.016,663.859
			c0-1.562,0.109-3.234,0.188-4.688h4.578c8.672,0.188,14.234,1.359,14.234,11.109c0,9.266-5.141,14.312-14.609,14.312
			c-1.484,0-2.938-0.078-4.391-0.266V663.859z M539.656,718.422c-2.141-3.312-2.141-8.359-2.141-12.75v-44.547h10.719
			c3.984,0,9.953-0.688,11.594-4.875h-49.031l-1.922,7c2.406-1.828,4.656-2.125,6.906-2.125h12.969v44.547
			c0,4.391,0,9.438-2.156,12.75H539.656z"/>
		<path d="M344.25,687.234h-18.609l8.469-20.844c0.188-0.5,0.797-2.344,1.641-2.344c0.906,0,1.484,1.656,1.672,2.344L344.25,687.234
			z M367.047,718.422l-1.938-3.609c-9.75-18.031-15.969-39.188-22.219-58.562h-11.5l-0.109,2.609
			c0,8.016-20.078,49.828-25.625,56.828l-2.141,2.734h12.188c-0.188-1.25-0.297-2.438-0.297-3.703
			c0-5.547,4.375-15.109,8.578-23.578h21.922l10.625,27.281H367.047z"/>
		<path d="M253.859,655.766c-4.953-0.391-9.844-1.078-14.719-1.078c-21.812,0-38.969,10.719-38.969,34.297
			c0,21.938,13.844,31.016,34.406,31.016c6.812,0,14.797-0.594,20.734-1.578c-0.375-2.422-0.672-5.938-0.672-8.484v-9.734
			c0-4.391,0-9.438,2.156-12.766h-13.078c2.156,3.328,2.156,8.375,2.156,12.766v4.781c0,3.297,0,6.703-0.984,10.031
			c-2.422,0.375-4.656,0.688-7.203,0.688c-18.797,0-27.375-11.703-27.375-29.75c0-14.234,8.766-26.984,23.859-26.984
			c7.516,0,13.078,1.938,19.688,7.312V655.766z"/>
		<path d="M137.469,688.797c0,14.031-6.062,26.891-20.078,26.891c-15.688,0-20.078-16.953-20.078-29.812
			c0-14.047,6.031-26.906,20.078-26.906C133.078,658.969,137.469,675.938,137.469,688.797 M147.594,686.062
			c0-17.328-8.969-31.375-29.438-31.375c-20.266,0-31,15.406-31,33.906c0,17.375,8.969,31.406,29.438,31.406
			C136.875,720,147.594,704.594,147.594,686.062"/>
		<path d="M10.906,690.078h2.453c6.031,0,17.062,0,20.469-5.562c-7.516,0.672-15.406,0.672-22.922,0.672v-25.047h10.047
			c4.578,0,10.734,0.109,13.453,4.578h0.484v-7.594c0-0.875-2.062-0.875-4.469-0.875H0.188c2.172,3.297,1.953,8.391,1.953,12.781
			v36.625c0,4.391,0,9.469-2.141,12.766h13.062c-2.156-3.297-2.156-8.375-2.156-12.766V690.078"/>
		<path fill="#00A94F" d="M589.5,172.891c-3.922-9.062-8.312-17.906-13.109-26.469c-7.578-13.484-16.203-26.312-25.766-38.312
			c-7.891-9.906-16.422-19.297-25.547-28.078c-13.094-12.594-27.375-23.984-42.688-33.938c-14.188-9.219-29.281-17.25-45.078-23.891
			C403.219,7.906,365.797,0,326.516,0c-38.938,0-76.125,7.781-110.109,21.844c-15.969,6.609-31.234,14.641-45.609,23.891
			c-14.703,9.484-28.5,20.25-41.203,32.156c-9.406,8.781-18.203,18.188-26.344,28.141c-10.234,12.547-19.438,25.953-27.469,40.109
			c-4.859,8.578-9.312,17.422-13.266,26.516C47.297,207.5,38.828,245.922,38.828,286.297c0,40.406,8.469,78.812,23.688,113.641
			c3.953,9.094,8.406,17.953,13.266,26.547c7.641,13.469,16.344,26.266,25.984,38.281c8.016,9.953,16.688,19.359,25.938,28.156
			c13.234,12.641,27.656,24.016,43.094,33.938c14.375,9.281,29.641,17.297,45.609,23.922
			c33.984,14.062,71.172,21.844,110.109,21.844c39.281,0,76.703-7.906,110.797-22.203c15.797-6.641,30.891-14.672,45.109-23.922
			c14.547-9.484,28.203-20.25,40.797-32.156c9.25-8.734,17.906-18.125,25.938-28.031c10.156-12.547,19.281-25.938,27.234-40.109
			c4.797-8.578,9.188-17.422,13.109-26.5c15.016-34.766,23.344-73.109,23.344-113.406S604.516,207.656,589.5,172.891
			 M561.578,182.344c11.188,27.547,18.094,57.453,19.828,88.828c-25.156,1.891-74.703,3.391-137.531,4.25
			C450.906,234.859,496.797,200.281,561.578,182.344 M547.453,152.781c0.844,1.547,1.688,3.078,2.5,4.641
			c-69.469,22.641-118.344,66.719-124.312,118.234c-0.359,0.016-0.734,0.016-1.094,0.016c-1.625-36.75-11.641-71.781-28.516-103.828
			c31.781-28.078,74.953-49.016,124.312-59.062C530.484,125.188,539.578,138.562,547.453,152.781 M315.172,276.172
			c-23.125-0.047-45.516-0.141-66.797-0.312c1.734-31.562,11.266-61.641,27.188-89.172
			C298.688,212.672,312.922,243.266,315.172,276.172 M289.172,165.828c10.859-14.828,23.656-28.812,38.188-41.672
			c14.875,13.219,27.969,27.578,39.031,42.859c-17.594,20.328-30.844,43.156-38.688,67.703
			C320.031,209.75,306.844,186.531,289.172,165.828 M315,296.641c-2.719,32.406-17.109,62.531-40.125,88.125
			c-15.469-27.188-24.734-56.766-26.5-87.812C269.625,296.781,291.953,296.688,315,296.641 M327,337.906
			c7.672,24.969,20.875,48.188,38.531,68.875c-10.859,14.844-23.656,28.797-38.172,41.656
			c-14.906-13.203-27.984-27.547-39.047-42.859C305.906,385.281,319.141,362.453,327,337.906 M339.547,296.641
			c23.125,0.047,45.5,0.141,66.781,0.328c-1.781,31.516-11.297,61.469-27.188,88.969C356.062,360,341.812,329.484,339.547,296.641
			 M339.688,276.172c2.703-32.484,17.078-62.656,40.141-88.312c15.516,27.219,24.781,56.891,26.5,87.984
			C385.078,276.031,362.75,276.125,339.688,276.172 M452.953,54.422c15.5,9.281,29.969,20.219,43.234,32.562
			C451.812,99.875,412.922,121.719,383,149.75c-9.922-15.141-21.391-29.453-34.297-42.844
			C378.547,84.938,413.844,67.031,452.953,54.422 M325.969,19.172c29.328,0,57.5,5.188,83.719,14.672
			c-30.578,14.281-58.312,32.172-82.328,52.891c-24.375-21-52.531-39.062-83.578-53.453
			C269.547,24.141,297.203,19.172,325.969,19.172 M199.953,53.828c39.828,12.625,75.734,30.75,106.047,53.062
			c-12.516,13-23.719,26.906-33.406,41.547c-30.125-28.5-69.484-50.703-114.406-63.688
			C171.062,73.047,185.031,62.672,199.953,53.828 M104.688,152.328c8.281-14.875,17.891-28.844,28.656-41.688
			c50.172,10.016,93.969,31.312,126.047,59.891c-17.312,32.406-27.578,67.891-29.234,105.156c-0.359-0.016-0.734-0.016-1.109-0.016
			c-6.016-52.141-55.938-96.625-126.688-119.016C103.125,155.234,103.891,153.766,104.688,152.328 M90.594,181.656
			c66.125,17.719,113.125,52.688,120.234,93.781c-64.891-0.891-115.719-2.469-140.328-4.422
			C72.25,239.438,79.281,209.359,90.594,181.656 M90.172,391.078c-11.203-27.703-18.094-57.766-19.734-89.297
			c24.812-1.938,75.656-3.516,140.375-4.391C203.547,338.5,156.406,373.406,90.172,391.078 M104.109,420.422
			c-0.766-1.422-1.547-2.859-2.297-4.297c70.953-22.312,121.078-66.797,127.219-118.969c0.375,0,0.766,0,1.141,0
			c1.656,36.672,11.656,71.609,28.5,103.594c-32.469,28.703-76.828,49.953-127.547,59.734
			C121,448.062,111.969,434.656,104.109,420.422 M198.641,519.203c-15.516-9.344-29.984-20.297-43.25-32.688
			c45.672-12.75,85.688-34.953,116.312-63.641c9.922,15.109,21.391,29.453,34.297,42.828
			C275.375,488.266,239,506.547,198.641,519.203 M325.969,554.625c-29.297,0-57.422-5.141-83.625-14.641
			c31.641-14.484,60.281-32.797,85.016-54.125c24.406,21.078,52.609,39.156,83.75,53.562
			C384.469,549.25,355.812,554.625,325.969,554.625 M454.219,518.609c-39.625-12.609-75.359-30.672-105.516-52.906
			c12.516-13,23.719-26.906,33.406-41.516c29.875,28.266,68.812,50.297,113.25,63.344
			C482.703,499.25,468.922,509.672,454.219,518.609 M548.031,419.984c-8.172,14.875-17.625,28.828-28.25,41.688
			c-49.516-10.156-92.719-31.297-124.484-59.609c17.281-32.328,27.562-67.734,29.234-104.906c0.375,0,0.766,0.031,1.141,0.031
			c6.094,51.547,55.156,95.625,124.812,118.156C549.672,416.906,548.859,418.469,548.031,419.984 M562,390.391
			c-64.875-17.875-110.938-52.422-118.109-92.984c62.859,0.859,112.438,2.391,137.578,4.266
			C579.844,332.969,573.062,362.844,562,390.391"/>
	</g>
</g>
</svg>
